<?xml version="1.0" encoding="utf-8"?>
<!-- Generator: Adobe Illustrator 19.0.1, SVG Export Plug-In . SVG Version: 6.00 Build 0)  -->
<svg version="1.1" id="Layer_1" xmlns="http://www.w3.org/2000/svg" xmlns:xlink="http://www.w3.org/1999/xlink" x="0px" y="0px"
	 viewBox="0 0 268 140" style="enable-background:new 0 0 268 140;" xml:space="preserve">
<style type="text/css">
	.st0{fill-rule:evenodd;clip-rule:evenodd;fill:#fff;}
</style>
<g>
	<path class="st0" d="M242,101.2c0.2,0.2,0.4,0.3,0.7,0.4l0,0c0,0,0.1,0,0.1,0c0.1,0,0.1,0,0.2,0c0.1,0,0.2,0,0.3,0
		c0.1,0,0.2,0,0.3-0.1c0.1,0,0.2-0.1,0.3-0.1c0.1,0,0.1-0.1,0.2-0.1c0.1-0.1,0.2-0.2,0.4-0.3c0.1-0.1,0.2-0.3,0.3-0.5l0,0
		c0.1-0.2,0.2-0.4,0.3-0.8c0.1-0.3,0.3-0.7,0.4-1.1c0.3-0.9,0.6-1.8,0.8-2.6c0.3-0.8,0.5-1.4,0.7-2c0.2-0.6,0.5-1.2,0.8-1.9
		c0.3-0.7,0.7-1.4,1.1-2.2c0.6-1.1,1.1-2,1.5-2.6c0.4-0.7,0.8-1.1,1.1-1.3l0.1,0l0.2-0.1l0.2-0.1c0.2-0.1,0.4-0.1,0.6-0.2
		c0.2,0,0.3-0.1,0.4-0.2c0.1-0.1,0.2-0.1,0.2-0.2l0,0c0.1-0.1,0.1-0.1,0.1-0.2c0-0.1,0-0.1,0-0.2c0-0.1,0-0.3-0.1-0.4
		c-0.1-0.2-0.3-0.3-0.6-0.5c-0.1,0-0.1-0.1-0.2-0.1c-0.1,0-0.2,0-0.2-0.1c-0.1,0-0.2,0-0.3,0c-0.1,0-0.3,0-0.5,0c-0.2,0-0.4,0-0.5,0
		c-0.1,0-0.2,0-0.3,0c-0.1,0-0.2,0-0.3,0.1c-0.1,0-0.2,0.1-0.4,0.2l0,0c-0.7,0.4-1.3,1-2.1,1.8c-0.7,0.9-1.5,2.1-2.3,3.5l-0.8,1.5
		l-0.9-0.2l-0.1-2.1c0-0.3,0-0.6,0-0.9l0-0.9c0-0.3,0-0.5,0-0.8c0-0.2,0-0.4,0-0.5l0-0.1c0-0.2,0-0.4-0.1-0.5v0c0-0.1,0-0.1,0-0.1
		l0-0.1l-0.1-0.1c0,0-0.1-0.1-0.1-0.1l0,0c-0.1-0.1-0.2-0.1-0.3-0.2c-0.1,0-0.1,0-0.2,0c-0.1,0-0.3,0.1-0.4,0.2
		c-0.2,0.2-0.3,0.4-0.4,0.7c-0.1,0.3-0.1,0.7-0.2,1.3c-0.1,0.6-0.2,1.2-0.2,2c-0.1,0.8-0.2,1.7-0.2,2.7c-0.1,0.9-0.1,1.9-0.2,3v0
		c0,0.4,0,0.8,0,1.2c0,0.3,0,0.7,0,1.1c0,0.9,0,1.6,0.1,2.3c0.1,0.6,0.2,1.1,0.3,1.5C241.7,100.8,241.8,101,242,101.2L242,101.2z
		 M265.6,82.9L265.6,82.9c0.1,0.2,0.3,0.3,0.4,0.5c0.1,0.2,0.2,0.3,0.3,0.5c0.1,0.2,0.1,0.3,0.2,0.5c0,0.2,0.1,0.4,0.1,0.6
		c0,0.3,0,0.5,0.1,0.8c0,1-0.3,2.1-0.8,3.1c-0.6,1.1-1.4,2.1-2.5,3.2l-0.7,0.6l-0.7,0.6l-0.8,0.6l-0.9,0.6l-0.9,0.5l-0.9,0.5
		l-0.8,0.4l-0.8,0.3l-0.3,0.1c-0.1,0-0.2,0.1-0.3,0.2c-0.1,0.1-0.2,0.2-0.3,0.3c-0.1,0.1-0.1,0.3-0.1,0.4l0,0.3l0.1,0.3
		c0.3,0.5,0.5,0.8,1,1.2c0.5,0.3,1,0.3,1.6,0.4c0.4,0,0.9-0.1,1.4-0.2c0.5-0.1,1.1-0.3,1.7-0.5c0.6-0.2,1.2-0.5,1.9-0.9
		c0.7-0.3,1.4-0.7,2.1-1.2c0.6-0.3,1.9-1.5,2.3-0.7l0,0.2l0,0.2l-0.1,0.3l-0.2,0.3l-0.2,0.4c-0.2,0.2-0.3,0.5-0.5,0.7
		c-0.2,0.2-0.4,0.5-0.6,0.7c-0.2,0.2-0.5,0.5-0.8,0.7c-0.3,0.2-0.6,0.5-0.9,0.7l0,0c-0.3,0.2-0.6,0.4-0.9,0.6
		c-0.3,0.2-0.6,0.4-1,0.5c-0.3,0.2-0.6,0.3-0.9,0.4c-0.3,0.1-0.6,0.2-0.9,0.3c-1.1,0.2-2.1,0.3-3.2,0.2c-0.3,0-0.7-0.1-1-0.2
		c-0.3-0.1-0.6-0.2-0.9-0.3c-0.3-0.1-0.5-0.3-0.8-0.5c-0.2-0.2-0.5-0.4-0.7-0.6c-0.2-0.2-0.4-0.4-0.5-0.7c-0.2-0.2-0.3-0.5-0.4-0.7
		c-0.1-0.2-0.2-0.5-0.3-0.8c-0.1-0.3-0.1-0.6-0.2-0.8c-0.1-0.4-0.1-1.1-0.4-1.5c-0.1-0.2-0.2-0.3-0.3-0.5c-0.1-0.1-0.1-0.3-0.1-0.4
		c0-0.2,0.1-0.5,0.2-0.8c0.1-0.3,0.4-0.6,0.6-0.7l0.2-0.2l0.2-0.3c0.2-0.3,0.3-0.7,0.5-1l0.3-0.6c0.6-1.3,1.3-2.4,2-3.5l0.5-0.7
		l0.6-0.7l0.6-0.7l0.7-0.7l0.7-0.7l0.6-0.6l0.5-0.4l0.5-0.3c0.3-0.2,0.6-0.3,0.8-0.5l0.3-0.2l0.3-0.1c0.5-0.1,0.8-0.2,1.3-0.2
		c0.5,0,0.9,0.1,1.3,0.2C265.1,82.4,265.4,82.6,265.6,82.9L265.6,82.9z M262.9,85.2c-0.1,0-0.2,0-0.3,0.1c-0.1,0-0.2,0.1-0.3,0.2
		c-0.7,0.5-1.3,1-1.9,1.6c-1.3,1.3-2.2,2.7-3.2,4.2l-0.2,0.3l0.8,0.8l0.1-0.1c0.7-0.4,1.2-0.8,1.8-1.2c0.6-0.4,1.1-0.9,1.6-1.4
		l0.7-0.8c0.3-0.4,0.6-0.8,0.8-1.2c0.2-0.4,0.4-0.8,0.6-1.3c0.1-0.2,0.1-0.4,0.1-0.5c0-0.1,0-0.2-0.1-0.3c0-0.1-0.1-0.2-0.2-0.2
		C263.3,85.3,263,85.2,262.9,85.2L262.9,85.2z M193.3,82.9c-0.2-0.3-0.5-0.5-0.9-0.6c-0.4-0.1-0.8-0.2-1.3-0.2
		c-0.5,0-0.8,0.1-1.3,0.2l-0.3,0.1l-0.3,0.2c-0.2,0.1-0.5,0.3-0.8,0.5l-0.5,0.3l-0.5,0.4l-0.6,0.6l-0.7,0.7l-0.7,0.7l-0.6,0.7
		l-0.6,0.7l-0.5,0.7c-0.8,1.2-1.4,2.3-2,3.5l-0.3,0.6c-0.1,0.4-0.3,0.7-0.5,1l-0.2,0.3l-0.2,0.2c-0.2,0.2-0.4,0.4-0.6,0.7
		c-0.1,0.3-0.2,0.6-0.2,0.8c0,0.1,0,0.3,0.1,0.4c0.1,0.2,0.2,0.3,0.3,0.5c0.2,0.3,0.3,1.1,0.4,1.5c0,0.3,0.1,0.6,0.2,0.8
		c0.1,0.3,0.2,0.5,0.3,0.8c0.1,0.3,0.3,0.5,0.4,0.7c0.2,0.2,0.3,0.5,0.5,0.7c0.2,0.2,0.4,0.4,0.7,0.6c0.2,0.2,0.5,0.3,0.8,0.5
		c0.3,0.1,0.6,0.2,0.9,0.3c0.3,0.1,0.6,0.1,1,0.2c1.1,0.1,2.1,0,3.2-0.2c0.3-0.1,0.6-0.2,0.9-0.3c0.3-0.1,0.6-0.3,0.9-0.4
		c0.3-0.2,0.6-0.3,1-0.5c0.3-0.2,0.6-0.4,0.9-0.6l0,0c0.3-0.2,0.6-0.5,0.9-0.7c0.3-0.2,0.5-0.5,0.8-0.7c0.2-0.2,0.5-0.5,0.7-0.7
		c0.2-0.2,0.4-0.5,0.5-0.7l0.2-0.4l0.2-0.3l0.1-0.3l0-0.2l0-0.2c-0.4-0.8-1.7,0.4-2.3,0.7c-0.8,0.5-1.5,0.9-2.1,1.2
		c-0.7,0.3-1.3,0.6-1.9,0.9c-0.6,0.2-1.2,0.4-1.7,0.5c-0.5,0.1-1,0.2-1.4,0.2c-0.6,0-1-0.1-1.6-0.4c-0.5-0.3-0.7-0.7-1-1.2l-0.1-0.3
		l0-0.3c0-0.2,0-0.3,0.1-0.4c0.1-0.1,0.2-0.2,0.3-0.3c0.1-0.1,0.2-0.1,0.3-0.2l0.3-0.1l0.8-0.3l0.8-0.4l0.9-0.5l0.9-0.5l0.9-0.6
		l0.8-0.6l0.7-0.6l0.7-0.6c1.1-1.1,2-2.2,2.5-3.2c0.6-1.1,0.8-2.1,0.8-3.1c0-0.3,0-0.5-0.1-0.8c0-0.2,0-0.4-0.1-0.6
		c0-0.2-0.1-0.4-0.2-0.5c-0.1-0.2-0.2-0.3-0.3-0.5C193.6,83.2,193.4,83,193.3,82.9L193.3,82.9L193.3,82.9z M190.7,85.2
		c0.1,0,0.4,0.1,0.5,0.2c0.1,0.1,0.1,0.2,0.2,0.2c0,0.1,0.1,0.2,0.1,0.3c0,0.1,0,0.3-0.1,0.5c-0.1,0.5-0.3,0.9-0.6,1.3
		c-0.2,0.4-0.5,0.8-0.8,1.2l-0.7,0.8c-0.6,0.6-1.1,1-1.6,1.4c-0.6,0.4-1.1,0.8-1.8,1.2l-0.1,0.1l-0.8-0.8l0.2-0.3
		c1-1.5,1.9-2.8,3.2-4.2c0.6-0.6,1.2-1.1,1.9-1.6c0.1-0.1,0.2-0.1,0.3-0.2C190.5,85.2,190.6,85.2,190.7,85.2L190.7,85.2z
		 M108.2,101.8c0.3,0.1,0.6,0.2,0.8,0.3c0.2,0,0.3,0.1,0.5,0.1c0.2,0,0.5,0,0.7,0c0.5,0,0.9,0,1.4-0.1c0.5,0,0.9-0.1,1.4-0.2
		c1.3-0.4,2.6-0.9,3.8-1.6c1.2-0.7,2.3-1.6,3.4-2.7c0.7-0.7,1.2-1.3,1.6-1.9c0.3-0.5,0.5-0.9,0.5-1.2c0-0.1,0-0.2,0-0.2
		c0-0.1-0.1-0.1-0.2-0.2l0,0c0,0-0.1-0.1-0.1-0.1c0,0-0.1,0-0.1,0c-0.1,0-0.2,0-0.4,0.1c-0.2,0.1-0.4,0.2-0.6,0.4
		c-0.8,0.6-1.4,1.1-2,1.5c-0.6,0.5-1.2,0.8-1.7,1.1c-0.5,0.3-1,0.6-1.5,0.8c-0.5,0.2-1,0.4-1.6,0.6c-0.2,0.1-0.5,0.2-0.7,0.2
		c-0.2,0.1-0.4,0.1-0.6,0.1c-0.2,0-0.4,0.1-0.6,0.1c-0.2,0-0.5,0-0.7,0.1l-1.3,0.1l-0.2,0l-0.9-0.4c-0.2-0.1-0.4-0.2-0.5-0.3
		c-0.2-0.1-0.3-0.2-0.4-0.3c-0.1-0.1-0.2-0.2-0.3-0.4c-0.1-0.1-0.2-0.3-0.3-0.5c-0.1-0.1-0.2-0.2-0.2-0.4c-0.1-0.1-0.2-0.3-0.2-0.4
		c-0.1-0.2-0.1-0.3-0.2-0.4c-0.1-0.1-0.1-0.3-0.1-0.4c-0.2-0.7-0.4-1.4-0.5-2.2c-0.1-0.8-0.2-1.7-0.2-2.6c0-0.4,0-0.8,0-1.2
		c0-0.4,0-0.8,0.1-1.2v0c0.2-1.5,0.5-3,0.8-4.4c0.4-1.5,0.8-2.9,1.4-4.4c0.6-1.4,1.2-2.7,1.8-3.9c0.7-1.2,1.4-2.2,2.2-3.1
		c0.3-0.4,0.7-0.7,1-1c0.3-0.3,0.6-0.5,0.9-0.7c0.3-0.2,0.6-0.3,1-0.4c0.3-0.1,0.7-0.1,1-0.1c0.1,0,0.2,0,0.4,0c0.1,0,0.3,0,0.4,0
		l0.2,0l0.2,0c0.2,0,0.3,0,0.4-0.1c0.1,0,0.1-0.1,0.2-0.2c0,0,0-0.1,0-0.1l0-0.1c0-0.1,0-0.3-0.1-0.4c-0.1-0.2-0.3-0.3-0.5-0.5
		c-0.3-0.2-0.5-0.3-0.9-0.5c-0.3-0.1-0.7-0.2-1.1-0.3l0,0c-0.1,0-0.2,0-0.3,0c-0.1,0-0.2,0-0.3,0c-0.6,0-1.3,0.2-1.9,0.5
		c-0.7,0.3-1.4,0.8-2.2,1.4c-1.5,1.4-2.8,3.2-4,5.4c-1.2,2.2-2.1,4.9-3,7.9c-0.3,1.3-0.6,2.6-0.8,3.8c-0.2,1.2-0.3,2.5-0.3,3.7
		l0,0.5l0,0.6c0.1,1.9,0.4,3.6,0.9,5c0.5,1.4,1.3,2.6,2.3,3.5c0.2,0.2,0.4,0.4,0.7,0.6c0.3,0.2,0.5,0.3,0.8,0.5
		C107.6,101.5,108,101.7,108.2,101.8L108.2,101.8z M139.2,101.4c0.2,0.2,0.5,0.4,0.7,0.5c0.2,0.1,0.4,0.1,0.6,0.2
		c0.2,0,0.4,0.1,0.5,0.1c0.2,0,0.3,0,0.5-0.1c0.1,0,0.3-0.1,0.4-0.2c0.1-0.1,0.2-0.2,0.3-0.3c0.1-0.1,0.1-0.2,0.2-0.4l0-0.1
		c0-0.1,0-0.2-0.1-0.4c-0.1-0.2-0.3-0.3-0.5-0.5c-0.2-0.1-0.3-0.3-0.5-0.5c-0.1-0.2-0.3-0.4-0.4-0.6c-0.1-0.2-0.2-0.5-0.3-0.7
		c-0.1-0.3-0.2-0.6-0.2-0.9v0c-0.1-0.5-0.2-1.1-0.2-1.8c0-0.7-0.1-1.5-0.1-2.3c0-0.5,0-1,0-1.6c0-0.6,0-1.1,0.1-1.7
		c0-0.4,0-0.8,0.1-1.1c0-0.3,0-0.6,0-0.8c0-0.2,0-0.4,0-0.6c0-0.2,0-0.3-0.1-0.4c0-0.1-0.1-0.1-0.1-0.2c0-0.1-0.1-0.1-0.1-0.2
		l-0.1-0.1c-0.1-0.2-0.3-0.3-0.4-0.3c-0.1-0.1-0.3-0.1-0.5-0.1c-0.2,0-0.4,0-0.6,0.1c-0.2,0.1-0.3,0.2-0.4,0.3
		c-0.3,0.3-0.6,0.8-0.9,1.7l0,0c-1,2.6-2,4.7-3,6.4c-1,1.7-2,2.9-3.1,3.7l-0.3,0.2c-0.1,0.1-0.2,0.1-0.3,0.1c-0.1,0-0.2,0.1-0.3,0.1
		c-0.1,0-0.2,0.1-0.3,0.1h-0.1c-0.1,0-0.2,0-0.3,0c-0.1,0-0.2-0.1-0.3-0.2l0,0c0,0-0.1-0.1-0.1-0.2l-0.2-0.3
		c-0.1-0.2-0.2-0.5-0.2-0.8c0-0.3-0.1-0.6-0.1-0.9c0-0.7,0.1-1.4,0.3-2.3c0.2-0.8,0.4-1.7,0.8-2.7l0,0c0.4-1,0.8-1.9,1.3-2.7
		c0.5-0.9,1-1.7,1.5-2.4c0.6-0.8,1.1-1.4,1.7-1.9c0.6-0.5,1.2-1,1.7-1.3c0.2-0.1,0.4-0.2,0.5-0.2c0.2-0.1,0.4-0.1,0.5-0.1
		c0.4,0,0.7,0.1,0.9,0.4c0.2,0.2,0.3,0.6,0.4,1c0,0.2,0.1,0.4,0.2,0.5c0,0.1,0.1,0.1,0.2,0.1c0,0,0.1,0,0.1,0c0,0,0.1,0,0.1,0l0,0
		c0,0,0.1,0,0.1-0.1c0,0,0-0.1,0.1-0.1l0,0c0-0.1,0-0.2,0.1-0.3c0-0.2,0-0.3,0-0.6c0-0.2,0-0.3,0-0.4c0-0.1,0-0.2,0-0.3l0,0
		c0-0.1,0-0.2-0.1-0.2c0-0.1-0.1-0.2-0.1-0.3c-0.2-0.5-0.5-0.8-0.9-1.1c-0.4-0.3-0.9-0.4-1.5-0.4l-0.4,0c-0.1,0-0.2,0-0.3,0
		c-0.1,0-0.2,0-0.2,0l0,0c-0.1,0-0.1,0-0.2,0c-0.1,0-0.2,0-0.2,0.1c-1.6,0.6-3,1.6-4.3,3.1c-1.3,1.5-2.5,3.5-3.6,5.9
		c-0.3,0.7-0.5,1.3-0.7,2c-0.2,0.7-0.4,1.4-0.5,2.2c0,0.3-0.1,0.5-0.1,0.8c0,0.3,0,0.6,0,0.9c0,0.3,0,0.5,0,0.7c0,0.2,0,0.4,0,0.7
		c0,0.2,0,0.4,0.1,0.6c0,0.2,0.1,0.3,0.1,0.4c0.1,0.2,0.1,0.4,0.2,0.5c0.1,0.2,0.2,0.4,0.3,0.6l0,0c0.1,0.2,0.2,0.4,0.3,0.5
		c0.1,0.1,0.2,0.3,0.3,0.4c0.1,0.1,0.2,0.2,0.4,0.3c0.2,0.1,0.3,0.2,0.5,0.3l0,0c0.2,0.1,0.4,0.2,0.6,0.3c0.2,0.1,0.4,0.1,0.6,0.2
		c0.1,0,0.2,0,0.2,0c0.1,0,0.1,0,0.2,0c0,0,0.1,0,0.1,0l0.2,0c0.1,0,0.1,0,0.2,0c0.1,0,0.2-0.1,0.3-0.1l0.1,0c0.2,0,0.4-0.1,0.6-0.2
		c0.2-0.1,0.4-0.1,0.6-0.2c0.2-0.1,0.4-0.2,0.5-0.3c0.2-0.1,0.4-0.3,0.6-0.4c0.5-0.4,1-0.9,1.5-1.5c0.5-0.6,1-1.3,1.5-2.1l0.5-0.8
		l0.9,0.2l0,0.3c0.1,0.5,0.2,0.9,0.2,1.4c0.1,0.4,0.2,0.8,0.2,1.1v0c0.1,0.3,0.2,0.5,0.2,0.8c0.1,0.2,0.2,0.4,0.3,0.6l0,0
		C138.8,100.9,139,101.2,139.2,101.4L139.2,101.4z M142.4,101.2L142.4,101.2L142.4,101.2L142.4,101.2z M146.5,101.2
		c0.2,0.2,0.5,0.4,0.9,0.6c0,0,0.1,0,0.2,0c0.1,0,0.2,0,0.3,0c0.2,0,0.3,0,0.5,0c0.2,0,0.4,0,0.6-0.1c0.2,0,0.4-0.1,0.5-0.1
		c0.1,0,0.3-0.1,0.4-0.1c0.7-0.3,1.3-0.6,1.9-1c0.6-0.4,1.1-0.9,1.5-1.5c0.4-0.6,0.8-1.1,1-1.7c0.2-0.6,0.3-1.2,0.4-1.8
		c0-0.5-0.1-1-0.2-1.5c-0.1-0.5-0.3-0.9-0.5-1.4c-0.2-0.4-0.6-1-1-1.5c-0.5-0.6-1-1.2-1.7-1.9l0,0c-0.2-0.2-0.4-0.4-0.5-0.6
		c-0.2-0.2-0.3-0.4-0.5-0.6c-0.1-0.1-0.2-0.2-0.2-0.3l-0.4-0.6c0.1-0.3,0.3-0.6,0.4-0.8c0.2-0.3,0.4-0.6,0.7-0.9
		c0.3-0.3,0.7-0.7,1.2-1.1c0.5-0.4,0.9-0.7,1.3-1c0.4-0.3,0.8-0.5,1.2-0.7c0.2-0.1,0.3-0.2,0.4-0.3c0-0.1,0.1-0.1,0.1-0.2
		c0-0.1,0-0.1,0-0.2c0-0.1-0.1-0.2-0.2-0.3c-0.1-0.1-0.2-0.1-0.2-0.2c-0.1,0-0.1,0-0.2,0c-0.1,0-0.1,0-0.2,0c-0.1,0-0.2,0-0.3,0.1
		l-0.1,0c-1,0.1-1.9,0.3-2.7,0.6c-0.9,0.3-1.6,0.7-2.4,1.3c-0.2,0.1-0.4,0.3-0.5,0.4c-0.1,0.1-0.3,0.3-0.4,0.4
		c-0.1,0.1-0.2,0.3-0.3,0.5c-0.1,0.2-0.2,0.4-0.3,0.6c-0.1,0.2-0.2,0.5-0.3,0.7c-0.1,0.3-0.1,0.5-0.1,0.8c0,0.3,0,0.6,0.1,1
		c0.1,0.3,0.2,0.6,0.3,1c0.1,0.2,0.2,0.4,0.3,0.6c0.1,0.2,0.3,0.4,0.4,0.6c0.1,0.2,0.4,0.4,0.6,0.7c0.3,0.3,0.6,0.7,1,1.1
		c0.7,0.7,1.2,1.3,1.6,1.8c0.4,0.6,0.6,1.1,0.6,1.6c0,0.2,0,0.4-0.1,0.7c-0.1,0.2-0.2,0.4-0.3,0.6c-0.1,0.2-0.3,0.4-0.4,0.6
		c-0.2,0.2-0.4,0.4-0.6,0.6l0,0c-0.2,0.2-0.5,0.4-0.9,0.5c-0.3,0.2-0.7,0.4-1.1,0.6c-0.4,0.2-0.7,0.4-1,0.5
		c-0.3,0.2-0.4,0.3-0.6,0.4c-0.1,0.1-0.2,0.2-0.2,0.3c0,0.1-0.1,0.2-0.1,0.3C146.3,100.7,146.4,101,146.5,101.2L146.5,101.2z
		 M160.3,102.9c0.1,0.1,0.2,0.2,0.3,0.2c0.1,0,0.2,0.1,0.3,0.1c0.1,0,0.2,0,0.4,0c0.3,0,0.5-0.1,0.8-0.2c0.3-0.1,0.5-0.3,0.7-0.5
		c0.1-0.1,0.1-0.1,0.2-0.2c0.1-0.1,0.1-0.2,0.2-0.3l0,0c0.1-0.1,0.1-0.3,0.2-0.5c0.1-0.2,0.2-0.5,0.3-0.7l0,0
		c0.2-0.4,0.4-1.1,0.6-1.8l0.2-0.7c0.3-0.9,0.6-1.8,0.9-2.5c0.3-0.8,0.5-1.4,0.7-2c0.2-0.6,0.4-1.1,0.7-1.6c0.2-0.5,0.5-1,0.7-1.5
		c0.2-0.4,0.4-0.9,0.7-1.3c0.2-0.4,0.5-0.8,0.7-1.2c0.3-0.4,0.5-0.7,0.7-1c0.2-0.3,0.4-0.5,0.6-0.7c0.3-0.3,0.6-0.5,0.8-0.8l0.4,1.1
		c0.1,0.2,0.2,0.4,0.2,0.7c0.1,0.3,0.2,0.6,0.2,1c0.1,0.4,0.2,0.7,0.2,1.1c0.1,0.4,0.1,0.8,0.2,1.2c0,0.3,0.1,0.6,0.1,1
		c0,0.3,0,0.7,0.1,1.1c0,0.4,0,0.9,0,1.6c0,0.7,0,1.4,0,2.1l0,1.5c0,0.4,0,0.8,0,1.1c0,0.3,0,0.6,0,0.8c0,0.2,0,0.4,0,0.6
		c0,0.1,0,0.2,0.1,0.3c0,0.1,0,0.1,0,0.1l0,0c0,0,0.1,0.1,0.1,0.2c0.1,0.1,0.1,0.1,0.2,0.2c0.1,0.1,0.2,0.1,0.3,0.2
		c0.1,0.1,0.2,0.1,0.2,0.1c0.1,0,0.1,0,0.2,0.1c0.1,0,0.2,0,0.3,0c0.4,0,0.7-0.1,0.9-0.2c0.2-0.1,0.4-0.4,0.6-0.6
		c0-0.1,0.1-0.3,0.1-0.6c0-0.3,0.1-0.8,0.1-1.3c0-0.5,0.1-1.1,0.1-1.6c0-0.5,0-1.1,0-1.7c0-0.5,0-0.8,0-1.2c0-0.4,0-0.7,0-1.1
		c-0.1-2.5-0.4-4.6-0.8-6.3c-0.4-1.6-0.9-2.8-1.6-3.6c-0.7-0.7-1.5-1-2.5-1c-0.1,0-0.3,0-0.4,0c-0.1,0-0.3,0-0.4,0.1
		c-0.1,0-0.3,0.1-0.5,0.2c-0.2,0.1-0.5,0.3-0.7,0.5c-0.3,0.2-0.5,0.4-0.7,0.6c-0.2,0.2-0.4,0.4-0.5,0.6c-0.3,0.4-0.6,0.9-1,1.4
		c-0.4,0.5-0.7,1.1-1.1,1.8c-0.4,0.7-0.7,1.3-1.1,2c-0.3,0.7-0.6,1.3-0.9,2l-0.3,0.6l-0.9-0.2v-2.5c0-1,0-2.2,0-3.3
		c0-1.1-0.1-2.3-0.1-3.6c0-1-0.1-2.6-0.1-4.2c-0.1-2.6-0.1-5.5-0.2-6.7c0-1-0.1-1.7-0.1-2.3c0-0.5-0.1-0.9-0.1-1
		c0-0.1-0.1-0.2-0.1-0.3c-0.1-0.1-0.1-0.1-0.2-0.2c-0.2-0.1-0.4-0.2-0.6-0.2c-0.2,0-0.3,0-0.4,0.1c-0.1,0.1-0.3,0.2-0.4,0.4
		c-0.1,0.1-0.1,0.4-0.2,0.9c-0.1,0.6-0.1,1.3-0.2,2.2c-0.1,1.3-0.2,5.3-0.3,9.1l-0.1,4.8c0,1.2,0,2.4-0.1,3.5c0,1,0,2.1,0,3.2
		c0,2.5,0,4.5,0.1,6.1c0.1,1.6,0.2,2.8,0.3,3.6c0,0.1,0.1,0.3,0.2,0.4c0.1,0.2,0.2,0.3,0.3,0.5C160.1,102.7,160.2,102.8,160.3,102.9
		L160.3,102.9z M223.9,102c0.5,0.7,1,1.1,1.7,1.3c0,0,0.1,0,0.1,0c0.1,0,0.1,0,0.2,0c0.1,0,0.2,0,0.3,0c0.1,0,0.2,0,0.3,0
		c0.1,0,0.2,0,0.3-0.1c0.1,0,0.1-0.1,0.2-0.1c0.2-0.1,0.4-0.3,0.5-0.4c0.1-0.2,0.1-0.4,0.1-0.6c0-0.1,0-0.2,0-0.2c0,0,0-0.1,0-0.1
		c0,0,0-0.1-0.1-0.1c0-0.1-0.1-0.1-0.2-0.2c-0.1-0.1-0.2-0.2-0.3-0.3c-0.1-0.1-0.3-0.3-0.5-0.4c-0.2-0.2-0.4-0.5-0.6-0.8
		c-0.1-0.3-0.3-0.7-0.3-1.2c-0.1-0.4-0.2-1-0.2-1.8c-0.1-0.7-0.1-1.6-0.1-2.6c0-1.1-0.1-2.1-0.1-2.9c0-0.8-0.1-1.6-0.1-2.2v0
		c0-0.6-0.1-1.1-0.1-1.5c0-0.4-0.1-0.8-0.2-1.2c-0.1-0.3-0.1-0.6-0.2-0.9c-0.1-0.3-0.1-0.5-0.2-0.8l0,0c-0.3-0.8-0.6-1.5-0.9-2.1
		c-0.3-0.5-0.7-0.9-1.1-1.1c-0.2-0.1-0.4-0.2-0.6-0.2c-0.2,0-0.4-0.1-0.6-0.1c-0.4,0-0.7,0.1-1.1,0.2c-0.4,0.2-0.7,0.4-1.1,0.7
		c-0.4,0.3-0.7,0.7-1.1,1.2c-0.3,0.5-0.7,1-1,1.7c-0.1,0.3-0.2,0.5-0.4,0.9c-0.1,0.3-0.2,0.6-0.4,1c-0.1,0.4-0.3,0.8-0.4,1.1
		c-0.1,0.4-0.2,0.7-0.3,1c-0.1,0.2-0.1,0.4-0.2,0.7c0,0.1-0.1,0.2-0.1,0.3c-0.1,0.2-0.3,0.3-0.5,0.3c-0.2,0-0.4-0.1-0.5-0.4
		c0-0.1,0-0.1,0-0.3l-0.1-0.4l-0.1-0.5c-0.2-1.3-0.4-2.4-0.6-3.3c-0.2-0.9-0.5-1.7-0.8-2.3c0-0.1-0.1-0.1-0.1-0.2
		c0-0.1-0.1-0.1-0.2-0.2l-0.2-0.3l-0.2-0.2c-0.3-0.2-0.5-0.4-0.8-0.5c-0.3-0.1-0.5-0.2-0.8-0.2c-0.3,0-0.6,0.1-0.9,0.2
		c-0.3,0.1-0.6,0.3-1,0.5l0,0c-0.3,0.2-0.7,0.6-1,0.9c-0.3,0.4-0.6,0.8-0.9,1.3c-0.5,0.9-1.1,1.9-1.5,3c-0.5,1.1-0.9,2.2-1.4,3.4
		l-0.3,0.9l-0.9-0.1c-0.1-1.5-0.2-3-0.3-4.5c0-0.6-0.1-1.1-0.1-1.5c0-0.4-0.1-0.8-0.1-1.1c0-0.3-0.1-0.5-0.1-0.7
		c0-0.2-0.1-0.3-0.1-0.3l0,0c0-0.1-0.1-0.2-0.2-0.2c-0.1-0.1-0.2-0.1-0.3-0.2l0,0c-0.2-0.1-0.5-0.2-0.7-0.2c-0.1,0-0.2,0-0.3,0
		c-0.1,0-0.2,0.1-0.2,0.1l0,0c-0.1,0.1-0.2,0.2-0.3,0.3c-0.1,0.1-0.2,0.2-0.2,0.3c-0.1,0.1-0.1,0.3-0.1,0.6c0,0.3,0,0.7,0,1.1
		c0,0.4,0,0.7,0,1.1c0,0.4,0,0.9,0,1.4c0.1,2.7,0.2,5.1,0.4,7c0.1,1.9,0.3,3.4,0.5,4.5c0.1,0.5,0.2,0.9,0.3,1.2
		c0.1,0.3,0.3,0.5,0.4,0.7c0.2,0.1,0.3,0.3,0.5,0.3c0.2,0.1,0.3,0.1,0.5,0.1c0.1,0,0.3,0,0.4-0.1c0.1,0,0.3-0.1,0.4-0.2
		c0.1-0.1,0.2-0.1,0.3-0.2c0.1-0.1,0.2-0.2,0.3-0.4l0,0c0.1-0.2,0.2-0.3,0.3-0.6c0.1-0.3,0.2-0.6,0.3-0.9l0,0
		c0.2-0.6,0.4-1.4,0.6-2.2c0.2-0.8,0.5-1.6,0.8-2.6c0.3-1,0.6-1.8,0.9-2.6c0.3-0.8,0.6-1.6,0.9-2.2l0,0c0.1-0.3,0.3-0.7,0.5-1
		c0.2-0.4,0.3-0.7,0.5-1c0.2-0.4,0.3-0.7,0.5-0.9c0.2-0.3,0.3-0.6,0.5-0.8l0,0c0.4-0.6,0.7-0.9,1-0.9c0.3,0,0.5,0.3,0.7,0.8
		c0.1,0.3,0.2,0.8,0.3,1.4c0.1,0.6,0.2,1.3,0.3,2.1c0.1,0.8,0.2,1.7,0.3,2.6v0c0.2,1.6,0.3,3,0.5,4.2c0.2,1.2,0.3,2.1,0.5,2.7
		c0.1,0.6,0.3,1.1,0.5,1.5c0.2,0.3,0.3,0.6,0.5,0.7l0,0c0.2,0.1,0.4,0.2,0.5,0.3c0.2,0.1,0.3,0.1,0.5,0.1c0.2,0,0.3,0,0.5-0.1
		c0.2,0,0.3-0.1,0.5-0.2c0.2-0.1,0.3-0.2,0.4-0.4c0.1-0.2,0.2-0.3,0.3-0.5c0.1-0.2,0.1-0.4,0.2-0.6c0.1-0.3,0.2-0.6,0.2-1
		c0.1-0.4,0.2-0.8,0.3-1.4c0.1-0.6,0.2-1.3,0.3-2c0.3-2.2,0.7-4.1,1-5.5c0.3-1.5,0.7-2.5,1-3.2c0.1-0.3,0.2-0.5,0.4-0.7
		c0.1-0.2,0.2-0.4,0.4-0.6l0,0c0.1-0.2,0.2-0.3,0.3-0.5c0.2-0.2,0.3-0.3,0.5-0.3c0.2,0,0.4,0.1,0.5,0.4c0.1,0.1,0.1,0.2,0.1,0.4
		c0,0.1,0.1,0.3,0.1,0.4c0,0.2,0.1,0.4,0.1,0.5l0.1,0.6l0.1,0.6c0,0.3,0.1,0.8,0.1,1.5l0,0.3c0,0.4,0.1,0.8,0.1,1.3
		c0,0.4,0,0.9,0.1,1.3c0,1,0.1,1.9,0.1,2.7c0,0.8,0.1,1.4,0.1,2c0,0.5,0.1,1,0.1,1.5c0.1,0.4,0.1,0.8,0.2,1.1l0,0
		C223.1,100.4,223.4,101.3,223.9,102L223.9,102z M234.7,68c-0.1,0-0.2,0-0.3,0c-0.1,0-0.3,0-0.4,0.1c-0.1,0-0.3,0.1-0.4,0.2
		c-0.1,0.1-0.3,0.2-0.5,0.3c-0.2,0.1-0.3,0.2-0.5,0.3l-0.2,0.2c-0.2,0.2-0.4,0.4-0.5,0.6c-0.1,0.2-0.1,0.4-0.1,0.6
		c0,0.2,0,0.4,0.1,0.6c0.1,0.2,0.2,0.4,0.3,0.6c0.1,0.2,0.3,0.3,0.5,0.5c0.2,0.1,0.4,0.2,0.6,0.3c0,0,0.1,0,0.2,0c0,0,0.1,0,0.1,0
		c0.3,0,0.7-0.1,0.9-0.2c0.3-0.1,0.5-0.4,0.7-0.7c0.1-0.2,0.2-0.4,0.2-0.6c0-0.2,0-0.5,0-0.7c0-0.4-0.1-0.8-0.2-1.1
		c-0.1-0.3-0.2-0.6-0.4-0.8C234.9,68.1,234.8,68,234.7,68L234.7,68z M236.8,98.3c-0.1,0.1-0.3,0.2-0.4,0.3l-0.3,0.1H236
		c-0.3,0-0.5-0.1-0.7-0.2c-0.2-0.2-0.3-0.4-0.4-0.6l0,0c-0.1-0.2-0.1-0.4-0.2-0.6c0-0.2-0.1-0.4-0.1-0.7c0-0.2-0.1-0.3-0.1-0.5
		c0-0.1-0.1-0.3-0.1-0.4l0-0.1c-0.1-1.2-0.2-2.3-0.3-3.5c-0.1-1.2-0.1-2.3-0.1-3.5c0-0.7,0-1.4,0-2.2l0-1.5c0-2.3,0-4.6,0-7
		c0-0.1,0-0.2,0-0.3c0-0.1,0-0.1,0-0.2c0-0.1,0-0.2,0-0.3c0-0.1,0-0.1,0-0.2c-0.1-0.2-0.2-0.3-0.3-0.5c-0.1-0.2-0.2-0.3-0.4-0.5
		c-0.1-0.1-0.3-0.2-0.4-0.3c-0.1-0.1-0.3-0.1-0.5-0.1h-0.1l-0.1,0c-0.3,0-0.5,0.1-0.6,0.2c-0.2,0.1-0.3,0.3-0.4,0.5
		c-0.1,0.3-0.2,0.5-0.3,0.7c-0.1,0.2-0.1,0.5-0.1,0.8v0.1c0,0.3,0,0.7,0,1l0,0.4c0,0.8-0.1,2.3-0.1,3.9c0,2.2,0,4.8,0,6
		c0,1.2,0,2.3,0.1,3.5c0.1,1.2,0.2,2.3,0.3,3.4c0.1,0.5,0.2,1,0.3,1.5c0.1,0.5,0.3,1,0.5,1.5c0.2,0.5,0.4,0.9,0.8,1.2
		c0.3,0.4,0.7,0.7,1.1,0.9c0.1,0.1,0.3,0.1,0.4,0.1c0.1,0,0.3,0,0.5,0c0.2,0,0.4,0,0.6,0c0.2,0,0.4-0.1,0.6-0.1l0,0
		c0.3-0.1,0.6-0.3,0.9-0.5c0.3-0.2,0.5-0.5,0.8-0.8c0.2-0.3,0.4-0.7,0.5-1c0.1-0.3,0.2-0.7,0.2-1c0-0.1,0-0.2-0.1-0.2
		c0-0.1-0.1-0.1-0.1-0.1c0,0-0.1,0-0.1-0.1c0,0-0.1,0-0.2,0c-0.1,0-0.2,0-0.4,0.1c-0.1,0-0.3,0.1-0.4,0.2l0,0
		C237.1,98.1,236.9,98.2,236.8,98.3L236.8,98.3z M232.5,75.8L232.5,75.8L232.5,75.8L232.5,75.8L232.5,75.8z M232.5,75.8L232.5,75.8
		L232.5,75.8z"/>
	<g>
		<path class="st0" d="M118.1,52.8l0.3,0.1c7.8,1.2,14.3-4.6,17.4-11.2c2.9-6.1,2.8-12.2,0.1-18.4c-2.5-5.9-7.3-10.7-13.6-14.1
			c-6.3-3.5-14.1-5.6-22.5-6.1C90,2.4,79.3,4.1,69,8.5c-18.5,8-38.9,25.4-52.1,46.1C6,71.9,0.1,91.3,4.6,109.3
			c2.4,8.9,6.7,15.5,12.2,20.1l0,0c5.8,4.8,12.9,7.4,20.3,7.7c7.5,0.3,15.3-1.6,22.5-5.6c8.6-4.8,16.3-12.6,21.4-23.3
			c6.1-12.7,6.5-27.2,7-40.5c0.4-11.8,0.7-22.7,5-30.8c1.7-3.4,4.1-6.6,6.7-9.3c2.5-2.5,5.2-4.4,7.9-5.3c1.5-0.5,3.1-0.8,4.7-0.9
			c3.8-0.2,7.5,0.8,10.6,2.7c3.1,1.9,5.6,4.8,6.8,8.4c0.4,1.2,0.7,2.6,0.7,3.9c0.2,4.1-1.9,7.9-4.7,10.8
			C123.5,49.7,120.6,51.6,118.1,52.8L118.1,52.8z M118,55.7c-1.7-0.2-3.4-0.8-5.2-1.6l0.5-2.7c2.4-0.2,7-2.5,10.3-6
			c2.4-2.4,4.1-5.5,3.9-8.7c-0.1-1.1-0.3-2.2-0.6-3.2c-1-2.9-3-5.2-5.6-6.8c-2.6-1.6-5.8-2.5-9-2.3c-1.3,0.1-2.7,0.3-4,0.7
			c-2.3,0.8-4.6,2.4-6.8,4.6c-2.4,2.4-4.6,5.5-6.2,8.6c-3.9,7.5-4.3,18.1-4.6,29.6c-0.4,13.5-0.9,28.4-7.2,41.6
			C78.2,120.7,70.1,128.9,61,134c-7.6,4.3-16,6.3-24,5.9c-8-0.4-15.7-3.1-22-8.3h0c-5.9-4.9-10.6-12.1-13.1-21.6l0,0
			c-4.8-18.9,1.3-39.1,12.7-56.9C28,31.9,49,14.1,67.9,5.9c10.7-4.6,21.9-6.4,32.2-5.8c8.8,0.5,17,2.7,23.7,6.4
			c6.8,3.7,12,9,14.8,15.5c3,7.1,3.1,13.9-0.1,20.8C134.7,50.7,127.2,57,118,55.7z"/>
		<path class="st0" d="M61.5,103.1l-16.3,1.1L39,122.8c1.7,0,3.3-0.2,5.1-0.6c2.8-0.6,5.6-1.6,8.4-3.2c5-2.8,9.1-7,12.2-12.1
			L61.5,103.1L61.5,103.1z M46.2,101.2l13.2-0.9l-9.1-11.5L46.2,101.2L46.2,101.2z M73.3,21.3l5.5,16.3c0.6-1.5,1.4-3.1,2.2-4.6
			c3.5-6.5,8.7-12.7,16.6-18.2c-2.9,0.1-5.8,0.5-8.8,1.1C83.8,17,78.5,18.9,73.3,21.3L73.3,21.3z M80.3,41.8L80.3,41.8L80.3,41.8
			c-1.7,5-2.6,10.1-3.1,15.4c-0.5,4.8-0.6,9.7-0.8,14.7l-0.1,2.3c-0.3,9.7-2.3,20.3-6.6,29.2c-3.6,7.7-8.9,14.2-16,18.1
			c-3,1.7-6.1,2.8-9.1,3.4c-5.4,1.2-10.8,0.7-15.4-1.2c-4.7-2-8.7-5.5-11.4-10.4c-1.3-2.4-2.3-5.1-3-8.2c-0.8-4-1.1-8-0.9-12.2
			c1-17.2,11.1-35.4,25.1-50.2c14-14.7,32.1-26.1,49.2-29.7c4.8-1,9.5-1.4,14.1-1.2l0.7,2.6c-9.6,6-15.7,12.6-19.5,19.8
			C82.2,36.8,81.2,39.3,80.3,41.8L80.3,41.8z M77.3,41.9c-1.5,4.9-2.4,9.9-3,15.1c-0.5,4.9-0.6,9.9-0.8,14.9l0,0.4l-19,4l17-51.2
			L77.3,41.9L77.3,41.9z M47.9,38.3l11.8,13.5l9.5-28.5C61.7,27.3,54.5,32.4,47.9,38.3L47.9,38.3z M58.6,55L45.8,40.3
			c-1.6,1.5-3.1,3-4.6,4.6c-1.5,1.6-2.9,3.2-4.3,4.8L51,78L58.6,55L58.6,55z M73.5,75.1c-0.4,9.1-2.4,18.8-6.3,27.1
			c-0.3,0.7-0.7,1.4-1.1,2.1L51.4,85.7l2.1-6.4L73.5,75.1L73.5,75.1z M16.9,92.4L46,74.3L34.9,52C24.8,64.5,17.9,78.8,16.9,92.4
			L16.9,92.4z M47.2,76.8l2.5,5l-13.6,40.9c-2-0.2-4-0.7-5.8-1.5c-4.1-1.7-7.6-4.8-10-9.2c-1.2-2.1-2.1-4.6-2.7-7.4
			c-0.6-2.9-0.9-5.8-0.9-8.8L47.2,76.8z"/>
	</g>
</g>
</svg>
